<svg width="704" height="891" fill="none" xmlns="http://www.w3.org/2000/svg"><g filter="url(#filter0_d)"><path d="M306.037 645.991L305.574 156l238.157 237.926-237.694 252.065zm186.419-337.347V206.046l51.275 51.299-51.275 51.299z" fill="#272361"/><path d="M417.676 494.992l-19.078-19.077.139 87.112 18.939 18.962v-86.997z" fill="#D914F4"/><path d="M440.253 517.594v86.973l66.18 66.181.07-86.858-66.25-66.296z" fill="#272361"/><path d="M427.528 316.758v102.157l116.111 116.111.093-101.948-116.204-116.32z" fill="#D914F4"/><path d="M160 282.635l.209 129.649 135.142 135.143.07-129.255L160 282.635z" fill="#272361"/><path d="M295.421 632.198l-79.904-79.927v13.793l79.904 79.927v-13.793z" fill="#D914F4"/><path d="M295.421 608.855l-79.904-79.903v13.792l79.904 79.927v-13.816z" fill="#272361"/><path d="M543.731 480.644l-158.23-158.231v8.044l158.23 158.254v-8.067z" fill="#F2F2F3"/><path d="M480.31 685.606h26.194l-.023 26.333-26.171-26.333zM223.468 249.185l.116 68.893 71.79 71.813.047-68.684-71.953-72.022z" fill="#D914F4"/><path d="M214.845 240.562l-9.388-9.388.116 68.893 9.272 9.272v-68.777z" fill="#272361"/><path d="M160 185.741v68.754l25.475 25.475.047-68.684L160 185.741zm145.574 469.036l.046 35.095 36.579 36.579.023-34.98-36.648-36.694zM260.743 530.69l.046 33.218 34.632 34.609v-33.102l-34.678-34.725zm282.988 41.54l-91.772-91.795-.162-17.502 91.795 91.796.139 17.501z" fill="#D914F4"/></g><defs><filter id="filter0_d" x="0" y="0" width="703.732" height="890.451" filterUnits="userSpaceOnUse" color-interpolation-filters="sRGB"><feFlood flood-opacity="0" result="BackgroundImageFix"/><feColorMatrix in="SourceAlpha" values="0 0 0 0 0 0 0 0 0 0 0 0 0 0 0 0 0 0 127 0"/><feOffset dy="4"/><feGaussianBlur stdDeviation="80"/><feColorMatrix values="0 0 0 0 0.85098 0 0 0 0 0.0784314 0 0 0 0 0.956863 0 0 0 0.7 0"/><feBlend in2="BackgroundImageFix" result="effect1_dropShadow"/><feBlend in="SourceGraphic" in2="effect1_dropShadow" result="shape"/></filter></defs></svg>