<svg width="49" height="54" fill="none" xmlns="http://www.w3.org/2000/svg"><g clip-path="url(#clip0)" filter="url(#filter0_d)"><path d="M28.628 26.903l-6.805-6.664A.84.84 0 0021.23 20a.84.84 0 00-.591.24l-.502.49a.808.808 0 000 1.158l5.715 5.596-5.721 5.602a.805.805 0 000 1.159l.501.49a.84.84 0 00.592.24.84.84 0 00.591-.24l6.813-6.67a.805.805 0 00.243-.58.805.805 0 00-.244-.582z" fill="#08F5FF"/></g><defs><clipPath id="clip0"><path fill="#fff" transform="translate(17 20)" d="M0 0h14v14H0z"/></clipPath><filter id="filter0_d" x="-2.283" y=".717" width="52.565" height="52.565" filterUnits="userSpaceOnUse" color-interpolation-filters="sRGB"><feFlood flood-opacity="0" result="BackgroundImageFix"/><feColorMatrix in="SourceAlpha" values="0 0 0 0 0 0 0 0 0 0 0 0 0 0 0 0 0 0 127 0"/><feOffset/><feGaussianBlur stdDeviation="9.641"/><feColorMatrix values="0 0 0 0 0.0392157 0 0 0 0 0.952941 0 0 0 0 1 0 0 0 0.8 0"/><feBlend in2="BackgroundImageFix" result="effect1_dropShadow"/><feBlend in="SourceGraphic" in2="effect1_dropShadow" result="shape"/></filter></defs></svg>