<svg width="40" height="40" viewBox="0 0 40 40" fill="none" xmlns="http://www.w3.org/2000/svg">
<mask id="mask0" mask-type="alpha" maskUnits="userSpaceOnUse" x="0" y="0" width="40" height="40">
<path fill-rule="evenodd" clip-rule="evenodd" d="M0 20C0 8.9543 8.9543 0 20 0C31.0457 0 40 8.9543 40 20C40 31.0457 31.0457 40 20 40C8.9543 40 0 31.0457 0 20Z" fill="white"/>
</mask>
<g mask="url(#mask0)">
<path fill-rule="evenodd" clip-rule="evenodd" d="M17.3335 20.0001C17.3335 19.2673 17.8607 18.6667 18.5286 18.6667C19.1964 18.6667 19.7354 19.2673 19.7237 20.0001C19.7237 20.7328 19.1964 21.3334 18.5286 21.3334C17.8725 21.3334 17.3335 20.7328 17.3335 20.0001ZM21.61 20.0001C21.61 19.2674 22.1373 18.6668 22.8051 18.6668C23.4729 18.6668 24.0002 19.2674 24.0002 20.0001C24.0002 20.7328 23.4729 21.3334 22.8051 21.3334C22.149 21.3334 21.61 20.7328 21.61 20.0001Z" fill="white"/>
<path fill-rule="evenodd" clip-rule="evenodd" d="M12.421 8.66672H28.2457C29.5802 8.66672 30.6667 9.74005 30.6667 11.0701V32L28.1276 29.7834L26.6987 28.4767L25.187 27.0884L25.813 29.2467H12.421C11.0865 29.2467 10 28.1734 10 26.8434V11.0701C10 9.74005 11.0865 8.66672 12.421 8.66672ZM22.9077 22.9584C23.262 23.4017 23.6871 23.9034 23.6871 23.9034C26.297 23.8217 27.3008 22.1301 27.3008 22.1301C27.3008 18.3734 25.6003 15.3284 25.6003 15.3284C23.8997 14.0684 22.2818 14.1034 22.2818 14.1034L22.1164 14.2901C24.1241 14.8967 25.057 15.7717 25.057 15.7717C23.8288 15.1067 22.6242 14.7801 21.5023 14.6517C20.6521 14.5584 19.8372 14.5817 19.1168 14.6751C19.055 14.6751 19.0021 14.684 18.9425 14.694C18.9339 14.6954 18.9251 14.6969 18.9161 14.6984C18.5027 14.7334 17.4989 14.8851 16.2353 15.4334C15.7983 15.6317 15.5385 15.7717 15.5385 15.7717C15.5385 15.7717 16.5187 14.8501 18.6444 14.2434L18.5263 14.1034C18.5263 14.1034 16.9084 14.0684 15.2079 15.3284C15.2079 15.3284 13.5073 18.3734 13.5073 22.1301C13.5073 22.1301 14.4993 23.8217 17.1092 23.9034C17.1092 23.9034 17.5462 23.3784 17.9004 22.9351C16.4006 22.4917 15.8338 21.5584 15.8338 21.5584C15.8338 21.5584 15.9519 21.6401 16.1644 21.7567C16.1762 21.7684 16.1881 21.7801 16.2117 21.7917C16.2294 21.8034 16.2471 21.8122 16.2648 21.8209C16.2825 21.8297 16.3002 21.8384 16.318 21.8501C16.6132 22.0134 16.9084 22.1417 17.1801 22.2467C17.6642 22.4334 18.2429 22.6201 18.9161 22.7484C19.8018 22.9117 20.841 22.9701 21.9747 22.7601C22.5298 22.6667 23.0966 22.5034 23.6871 22.2584C24.1004 22.1067 24.561 21.8851 25.0452 21.5701C25.0452 21.5701 24.4547 22.5267 22.9077 22.9584Z" fill="white"/>
</g>
</svg>
