<svg width="117" height="100" fill="none" xmlns="http://www.w3.org/2000/svg"><g opacity=".4"><mask id="a" maskUnits="userSpaceOnUse" x="0" y="0" width="117" height="100"><path d="M16.854 0L0 16.854V83.52l16.854-16.854V52.06l1.873-1.873h8.24l16.479-16.854H16.854V18.727l1.873-1.873h10.486L45.319 0H16.854z" fill="#C4C4C4"/><path d="M52.06 0L35.58 16.854h31.087V31.46l-2.248 1.872H49.813l-16.48 16.854V100l16.48-16.48V52.06l2.247-1.873h14.607L83.52 33.333v-16.48L66.667 0H52.06z" fill="#C4C4C4"/><path d="M68.54 54.307l-1.873 2.247v26.967L83.52 66.667v-12.36H68.539z" fill="#C4C4C4"/><path d="M89.513 33.333l-16.48 16.854h26.593V100l17.228-16.48V50.188L99.626 33.333H89.513z" fill="#C4C4C4"/></mask><g mask="url(#a)"><path d="M55.806 153.558L-52.434 51.041 52.061-49.439l99.123 100.48-95.378 102.517z" fill="url(#paint0_linear)"/></g></g><defs><linearGradient id="paint0_linear" x1="-3.744" y1="-7.865" x2="120.975" y2="86.142" gradientUnits="userSpaceOnUse"><stop offset=".188" stop-color="#D914F4"/><stop offset=".302" stop-color="#B13CED"/><stop offset=".391" stop-color="#9A51EF"/><stop offset=".5" stop-color="#8669F0"/><stop offset=".63" stop-color="#7484F2"/><stop offset=".729" stop-color="#699FF4"/><stop offset=".802" stop-color="#56BAFF"/><stop offset=".922" stop-color="#67D6FA"/><stop offset="1" stop-color="#71F2FB"/></linearGradient></defs></svg>