<svg width="33" height="33" fill="none" xmlns="http://www.w3.org/2000/svg"><mask id="a" maskUnits="userSpaceOnUse" x="0" y="0" width="33" height="33"><path fill-rule="evenodd" clip-rule="evenodd" d="M0 16.5C0 7.387 7.387 0 16.5 0S33 7.387 33 16.5 25.613 33 16.5 33 0 25.613 0 16.5z" fill="#fff"/></mask><g mask="url(#a)"><path fill-rule="evenodd" clip-rule="evenodd" d="M16.5 7.7c-2.39 0-2.69.01-3.628.053-.937.043-1.576.191-2.136.409a4.309 4.309 0 00-1.559 1.015c-.49.489-.79.98-1.015 1.558-.219.56-.367 1.2-.41 2.136-.041.939-.052 1.24-.052 3.629 0 2.39.01 2.689.053 3.628.043.936.191 1.576.409 2.136a4.31 4.31 0 001.015 1.559c.489.489.98.79 1.558 1.015.56.218 1.2.366 2.136.409.939.043 1.239.053 3.628.053 2.39 0 2.69-.01 3.628-.053.937-.043 1.577-.191 2.137-.409a4.304 4.304 0 001.558-1.015c.49-.49.79-.98 1.016-1.56.216-.559.364-1.199.409-2.135.042-.939.053-1.238.053-3.628s-.011-2.69-.053-3.629c-.044-.936-.193-1.576-.41-2.135a4.319 4.319 0 00-1.015-1.56 4.3 4.3 0 00-1.558-1.014c-.561-.218-1.201-.366-2.138-.409-.939-.043-1.238-.053-3.628-.053h.002zm-.789 1.586h.79c2.35 0 2.628.008 3.556.05.858.04 1.324.183 1.634.303.41.16.703.35 1.011.659.308.308.499.6.658 1.012.121.31.265.775.304 1.633.042.928.05 1.207.05 3.555s-.008 2.627-.05 3.555c-.04.858-.183 1.324-.304 1.633-.159.411-.35.704-.658 1.011-.308.308-.6.499-1.011.659-.31.12-.776.263-1.634.303-.928.042-1.206.051-3.556.051s-2.628-.01-3.556-.051c-.858-.04-1.324-.183-1.634-.304-.41-.16-.704-.35-1.012-.658a2.728 2.728 0 01-.659-1.011c-.12-.31-.264-.776-.303-1.634-.042-.927-.05-1.206-.05-3.556s.008-2.627.05-3.555c.04-.858.183-1.324.303-1.634.16-.41.35-.704.659-1.012a2.731 2.731 0 011.012-.659c.31-.12.776-.263 1.634-.303.812-.037 1.126-.048 2.766-.05v.003zm4.43 2.517a1.056 1.056 0 112.111 0 1.056 1.056 0 01-2.11 0zm-3.64.178a4.52 4.52 0 100 9.039 4.52 4.52 0 000-9.04zm2.933 4.519a2.933 2.933 0 10-5.866 0 2.933 2.933 0 005.866 0z" fill="#fff"/></g></svg>