<svg width="596" height="670" fill="none" xmlns="http://www.w3.org/2000/svg"><g filter="url(#filter0_d)"><path d="M106.445 134.282L154.699 86v96.536l-48.254-48.254zm329.462 286.361l-255.819-255.82h255.819v255.82zm-79.145 156.465L233.549 453.895h123.213v123.213z" fill="#272361"/><path d="M356.762 577.081V277.543l149.783 149.756-149.783 149.782z" fill="#6BCCE1"/><path d="M356.763 453.895h-77.455V199.847l77.455 77.695v176.353z" fill="#6BCCE1"/><path d="M215.836 266.137v79.279l82.741 82.607.027-79.011-82.768-82.875z" fill="#272361"/><path d="M89 175.692l.188 121.415 126.648 126.595V302.636L89 175.692z" fill="#6BCCE1"/><path d="M461.162 167.856l.08 42.967 44.766 44.793.027-42.833-44.873-44.927z" fill="#272361"/><path d="M252.604 86l.027 25.63 79.494 79.494.027-25.549L252.604 86zm-36.768 216.717l-36.58-36.58h36.58v36.58z" fill="#6BCCE1"/><path d="M223.538 235.434v8.937L388.78 409.612v-8.937L223.538 235.434z" fill="#272361"/><path d="M343.075 113.482v3.596l163.47 163.444v-3.597l-163.47-163.443zm0 12.023v3.624l163.47 163.443v-3.623l-163.47-163.444zm0 12.051v3.596l163.47 163.443v-3.596l-163.47-163.443zM89 91.206v3.597l129.466 129.439v-3.596L89 91.206zm0 10.118v3.597l129.466 129.466v-3.596L89 101.324z" fill="#6BCCE1"/></g><defs><filter id="filter0_d" x=".218" y=".418" width="595.108" height="668.671" filterUnits="userSpaceOnUse" color-interpolation-filters="sRGB"><feFlood flood-opacity="0" result="BackgroundImageFix"/><feColorMatrix in="SourceAlpha" values="0 0 0 0 0 0 0 0 0 0 0 0 0 0 0 0 0 0 127 0"/><feOffset dy="3.199"/><feGaussianBlur stdDeviation="44.391"/><feColorMatrix values="0 0 0 0 0.443137 0 0 0 0 0.945098 0 0 0 0 0.988235 0 0 0 0.5 0"/><feBlend in2="BackgroundImageFix" result="effect1_dropShadow"/><feBlend in="SourceGraphic" in2="effect1_dropShadow" result="shape"/></filter></defs></svg>