<svg width="24" height="24" fill="none" xmlns="http://www.w3.org/2000/svg"><path d="M0 12C0 5.373 5.373 0 12 0s12 5.373 12 12-5.373 12-12 12S0 18.627 0 12z" fill="#6441A5"/><path d="M10.8 14.4v-4l3.2 2-3.2 2z" fill="#6441A5"/><path fill-rule="evenodd" clip-rule="evenodd" d="M6 8.182L6.818 6H18v7.639l-3.273 3.271h-2.455l-1.635 1.638H8.999v-1.637H6v-8.73zM16.91 7.09H7.908v7.912h2.456v1.635L12 15.002h3l1.91-1.91V7.09z" fill="#fff"/><path fill-rule="evenodd" clip-rule="evenodd" d="M12 12.547h-1.091V9.274h1.09v3.273zm3 0h-1.092V9.274H15v3.273z" fill="#fff"/></svg>