<svg width="19" height="16" fill="none" xmlns="http://www.w3.org/2000/svg"><path d="M8.93 4.648l.038.655-.646-.08c-2.35-.307-4.404-1.349-6.148-3.098l-.852-.868-.22.641C.637 3.327.935 4.835 1.903 5.85c.517.56.4.64-.49.307C1.102 6.05.83 5.97.804 6.01c-.09.094.22 1.309.465 1.79.336.667 1.02 1.321 1.77 1.708l.633.307-.75.014c-.723 0-.749.013-.671.293.258.868 1.279 1.79 2.415 2.19l.8.28-.697.428a7.144 7.144 0 01-3.46.988c-.582.013-1.06.066-1.06.106 0 .134 1.576.881 2.493 1.175 2.75.868 6.018.494 8.472-.988 1.744-1.055 3.488-3.15 4.301-5.18.44-1.081.879-3.057.879-4.005 0-.614.038-.694.762-1.429.426-.427.826-.894.904-1.028.129-.253.116-.253-.543-.027-1.098.401-1.253.348-.71-.253.4-.427.878-1.202.878-1.429 0-.04-.194.027-.413.147-.233.134-.75.334-1.137.454l-.697.227-.633-.44c-.349-.24-.84-.508-1.098-.588-.659-.187-1.666-.16-2.26.053-1.615.601-2.635 2.15-2.519 3.845z" fill="#fff"/></svg>