<svg width="156" height="134" fill="none" xmlns="http://www.w3.org/2000/svg"><g opacity=".4"><mask id="a" maskUnits="userSpaceOnUse" x="0" y="0" width="156" height="134"><path d="M22.5 0L0 22.5v89L22.5 89V69.5L25 67h11l22-22.5H22.5V25l2.5-2.5h14L60.5 0h-38z" fill="#C4C4C4"/><path d="M69.5 0l-22 22.5H89V42l-3 2.5H66.5L44.5 67v66.5l22-22v-42l3-2.5H89l22.5-22.5v-22L89 0H69.5z" fill="#C4C4C4"/><path d="M91.5 72.5l-2.5 3v36L111.5 89V72.5h-20z" fill="#C4C4C4"/><path d="M119.5 44.5L97.5 67H133v66.5l23-22V67l-23-22.5h-13.5z" fill="#C4C4C4"/></mask><g mask="url(#a)"><path d="M74.5 205L-70 68.14 69.5-66 201.83 68.14 74.5 205z" fill="url(#paint0_linear)"/></g></g><defs><linearGradient id="paint0_linear" x1="-5" y1="-10.5" x2="161.5" y2="115" gradientUnits="userSpaceOnUse"><stop offset=".188" stop-color="#D914F4"/><stop offset=".302" stop-color="#B13CED"/><stop offset=".391" stop-color="#9A51EF"/><stop offset=".5" stop-color="#8669F0"/><stop offset=".63" stop-color="#7484F2"/><stop offset=".729" stop-color="#699FF4"/><stop offset=".802" stop-color="#56BAFF"/><stop offset=".922" stop-color="#67D6FA"/><stop offset="1" stop-color="#71F2FB"/></linearGradient></defs></svg>