<svg width="99" height="87" fill="none" xmlns="http://www.w3.org/2000/svg"><mask id="a" maskUnits="userSpaceOnUse" x="17" y="0" width="64" height="54"><path d="M26.483.988l-9.097 8.916V45.17l9.097-8.916v-7.727l1.011-.99h4.448l8.895-8.917H26.483v-7.727l1.011-.99h5.66L41.849.988H26.483z" fill="#C4C4C4"/><path d="M45.487.988L36.59 9.904h16.78v7.727l-1.213.99h-7.884l-8.896 8.916v26.351l8.896-8.717V28.528l1.213-.99h7.884l9.097-8.917V9.904L53.371.988h-7.884z" fill="#C4C4C4"/><path d="M54.382 29.717l-1.011 1.188v14.266l9.097-8.916v-6.538h-8.086z" fill="#C4C4C4"/><path d="M65.703 18.621l-8.895 8.916h14.354v26.351l9.3-8.717V27.537l-9.3-8.916h-5.459z" fill="#C4C4C4"/></mask><g mask="url(#a)"><path d="M47.509 82.22l-58.426-54.23 56.404-53.154L98.992 27.99 47.51 82.22z" fill="url(#paint0_linear)"/></g><path d="M20.694 85.478l-2.665-3.99h-.028v5.453h.93v-2.632L20.666 87h.056l1.727-2.69v2.63h.93v-5.452h-.029l-2.656 3.99zm6.327-3.99L24.421 87h1.023l.437-.979h2.317l.436.979h1.023l-2.6-5.512h-.036zm-.82 3.772l.832-1.878.837 1.878H26.2zm8.579-.38l-3.311-3.392h-.033v5.417h.926v-3.301L35.674 87h.028v-5.417h-.922v3.297zm5.277-3.392L37.457 87h1.023l.436-.979h2.317l.437.979h1.023l-2.6-5.512h-.036zm-.821 3.772l.833-1.878.837 1.878h-1.67zm7.456-.463h1.286v1.042c-.295.202-.66.325-1.08.325-1.14 0-1.9-.813-1.9-1.922 0-1.122.732-1.926 1.827-1.926a1.81 1.81 0 011.355.61l.582-.654c-.51-.515-1.108-.788-1.937-.788-1.609 0-2.765 1.173-2.765 2.758 0 1.573 1.184 2.754 2.838 2.754.805 0 1.484-.238 1.998-.71v-2.274h-2.204v.785zm5.442-.183h2.268v-.816h-2.268v-1.446h2.596v-.864h-3.55V87h3.61v-.86h-2.656v-1.526zm7.27.864l-2.665-3.99h-.028v5.452h.93v-2.63L59.376 87h.056l1.727-2.69v2.63h.93v-5.452h-.029l-2.656 3.99zm5.636-.864h2.265v-.816H65.04v-1.446h2.592v-.864h-3.55V87h3.61v-.86h-2.651v-1.526zm8.414.266l-3.31-3.392h-.03v5.417h.927v-3.301L74.352 87h.028v-5.417h-.925v3.297zm3.045-3.392v.832h1.8V87h.9v-4.68H81v-.832h-4.5zM3.49 65.86h5.23v-3.115H0v13.227h3.49v-5.076h4.257v-2.861H3.489V65.86zm11.013-3.115L7.86 75.976h3.89l.53-1.32h4.516l.534 1.32h3.89l-6.644-13.231h-.073zM13.31 72.1l1.23-3.094 1.229 3.094H13.31zm13.764-9.355h-3.49v13.227h3.49V62.745zm15.223 4.426c0-2.805-2.297-4.426-4.812-4.426H31.57v13.227h3.49v-4.39h1.265l2.588 4.39h4.06l-2.977-4.985c1.343-.701 2.3-2.017 2.3-3.816zm-5.143 1.474h-2.095v-2.968h2.095c.934 0 1.597.559 1.597 1.494 0 .935-.66 1.474-1.597 1.474zm19.157-5.9h-5.014v13.227h2.297v-4.68h2.717c2.624 0 4.719-1.53 4.719-4.264 0-2.773-2.111-4.283-4.719-4.283zm-.222 6.586h-2.5v-4.625h2.5c1.56 0 2.608.809 2.608 2.322 0 1.51-1.027 2.303-2.608 2.303zm9.501-6.586h-2.296v13.227h8.41v-1.997H65.59v-11.23zm14.718 0l-6.243 13.231h2.49l.963-2.164h5.657l.962 2.164h2.49l-6.246-13.231h-.073zm-2.001 9.213l2.037-4.589 2.038 4.589h-4.075zm18.013-9.213l-3.433 5.468-3.433-5.468h-2.665l4.957 7.739v5.468h2.297v-5.504L99 62.745h-2.68z" fill="#fff"/><defs><linearGradient id="paint0_linear" x1="15.365" y1="-3.173" x2="81.697" y2="47.843" gradientUnits="userSpaceOnUse"><stop offset=".188" stop-color="#D914F4"/><stop offset=".302" stop-color="#B13CED"/><stop offset=".391" stop-color="#9A51EF"/><stop offset=".5" stop-color="#8669F0"/><stop offset=".63" stop-color="#7484F2"/><stop offset=".729" stop-color="#699FF4"/><stop offset=".802" stop-color="#56BAFF"/><stop offset=".922" stop-color="#67D6FA"/><stop offset="1" stop-color="#71F2FB"/></linearGradient></defs></svg>