<svg width="17" height="16" fill="none" xmlns="http://www.w3.org/2000/svg"><path fill-rule="evenodd" clip-rule="evenodd" d="M8.166 15.863h-.003a7.921 7.921 0 01-3.79-.965L.172 16l1.125-4.108a7.914 7.914 0 01-1.06-3.964C.24 3.557 3.796 0 8.166 0c2.12 0 4.111.827 5.608 2.325a7.88 7.88 0 012.32 5.61c-.001 4.37-3.557 7.926-7.928 7.928zm-3.597-2.4l.24.142a6.58 6.58 0 003.354.918h.003c3.632 0 6.588-2.956 6.59-6.59a6.55 6.55 0 00-1.929-4.661A6.545 6.545 0 008.17 1.339a6.6 6.6 0 00-6.593 6.59c0 1.245.348 2.457 1.008 3.506l.156.25-.665 2.431 2.494-.654zm7.32-3.822c.138.067.231.112.271.178.05.083.05.48-.115.942-.165.463-.957.886-1.338.943a2.715 2.715 0 01-1.247-.079 11.387 11.387 0 01-1.13-.417c-1.857-.802-3.112-2.602-3.35-2.942a2.36 2.36 0 00-.034-.05l-.001-.002c-.105-.14-.808-1.077-.808-2.047 0-.912.448-1.39.655-1.61l.039-.043a.728.728 0 01.528-.248c.132 0 .264.002.38.008h.044c.115 0 .26-.001.401.34l.22.53c.17.416.358.874.391.94.05.1.083.215.017.348l-.028.056c-.05.101-.086.176-.17.274a4.38 4.38 0 00-.102.122c-.068.083-.136.166-.196.225-.099.099-.202.206-.087.404.116.199.514.847 1.103 1.373a5.127 5.127 0 001.462.924c.054.024.098.043.13.06.199.098.314.082.43-.05.115-.133.495-.579.627-.777.132-.199.264-.166.446-.1.181.067 1.155.546 1.354.645.038.02.074.037.108.053z" fill="#F2F2F2"/></svg>