<svg width="15" height="16" fill="none" xmlns="http://www.w3.org/2000/svg"><path fill-rule="evenodd" clip-rule="evenodd" d="M7.961 7.771c0-.502.362-.914.82-.914.458 0 .82.412.82.914 0 .503-.362.915-.82.915-.45 0-.82-.412-.82-.915zm-2.932 0c0-.502.361-.914.82-.914.457 0 .827.412.819.914 0 .503-.362.915-.82.915-.45 0-.82-.412-.82-.915z" fill="#F2F2F2"/><path fill-rule="evenodd" clip-rule="evenodd" d="M1.66 0h10.851c.915 0 1.66.736 1.66 1.648V16l-1.74-1.52-.98-.896-1.037-.952.43 1.48H1.66c-.915 0-1.66-.736-1.66-1.648V1.648C0 .736.745 0 1.66 0zm7.191 9.8c.243.304.535.648.535.648 1.79-.056 2.478-1.216 2.478-1.216 0-2.576-1.167-4.664-1.167-4.664-1.166-.864-2.275-.84-2.275-.84l-.113.128c1.376.416 2.016 1.016 2.016 1.016a6.659 6.659 0 00-4.073-.752.678.678 0 00-.12.013l-.018.003c-.283.024-.972.128-1.838.504-.3.136-.478.232-.478.232s.672-.632 2.13-1.048l-.081-.096s-1.11-.024-2.276.84c0 0-1.166 2.088-1.166 4.664 0 0 .68 1.16 2.47 1.216 0 0 .3-.36.543-.664C4.389 9.48 4 8.84 4 8.84s.081.056.227.136A.104.104 0 004.26 9c.012.008.024.014.036.02.012.006.024.012.036.02.203.112.405.2.592.272.332.128.728.256 1.19.344.607.112 1.32.152 2.097.008a5.38 5.38 0 001.175-.344c.283-.104.599-.256.93-.472 0 0-.404.656-1.465.952z" fill="#F2F2F2"/></svg>