<svg width="426" height="104" fill="none" xmlns="http://www.w3.org/2000/svg"><path d="M-7 1h430.777L333.34 103H-7V1z" fill="#120E44" stroke="url(#paint0_linear)" stroke-width="2"/><path d="M144.303 32.781h8.737v-5.307h-14.564v22.538h5.827v-8.65h7.11v-4.874h-7.11V32.78zm18.392-5.307L151.602 50.02h6.495l.885-2.249h7.541l.892 2.249h6.495l-11.093-22.545h-.122zm-1.992 15.941l2.053-5.273 2.053 5.273h-4.106zm22.984-15.941h-5.827v22.538h5.827V27.474zm25.421 7.542c0-4.78-3.835-7.542-8.035-7.542h-9.878v22.538h5.827V42.53h2.113l4.321 7.48h6.779l-4.969-8.493c2.241-1.195 3.842-3.437 3.842-6.502zm-8.589 2.512h-3.497V32.47h3.497c1.56 0 2.667.952 2.667 2.545s-1.1 2.512-2.667 2.512z" fill="#08F5FF"/><path d="M232.51 27.474h-8.373v22.538h3.836v-7.974h4.537c4.382 0 7.879-2.606 7.879-7.265 0-4.726-3.524-7.299-7.879-7.299zm-.372 11.222h-4.172v-7.88h4.172c2.607 0 4.355 1.378 4.355 3.957 0 2.572-1.715 3.923-4.355 3.923zm15.867-11.222h-3.835v22.538h14.044v-3.403h-10.209V27.474zm24.577 0L262.157 50.02h4.159l1.607-3.687h9.446l1.607 3.687h4.159l-10.431-22.545h-.122zm-3.342 15.698l3.403-7.818 3.403 7.818h-6.806zm30.08-15.698l-5.733 9.318-5.732-9.318h-4.449l8.277 13.187v9.317h3.835V40.6l8.278-13.126h-4.476z" fill="#fff"/><path d="M142.973 68.236l-4.45-6.8h-.047v9.291h1.553v-4.483l2.897 4.584h.094l2.883-4.584v4.483h1.553v-9.29h-.047l-4.436 6.799zm10.567-6.799l-4.342 9.391h1.708l.73-1.667h3.869l.729 1.667h1.708l-4.342-9.392h-.06zm-1.371 6.427l1.391-3.2 1.398 3.2h-2.789zm14.327-.648l-5.529-5.78h-.054v9.23h1.546v-5.624l5.53 5.786h.047v-9.23h-1.54v5.618zm8.812-5.779l-4.342 9.391h1.709l.729-1.667h3.869l.729 1.667h1.708l-4.341-9.392h-.061zm-1.371 6.427l1.391-3.2 1.398 3.2h-2.789zm12.45-.79h2.148v1.776a3.105 3.105 0 01-1.803.554c-1.904 0-3.174-1.385-3.174-3.275 0-1.91 1.222-3.281 3.052-3.281.966 0 1.729.445 2.262 1.04l.972-1.115c-.85-.877-1.85-1.343-3.234-1.343-2.687 0-4.618 1.998-4.618 4.699 0 2.68 1.978 4.693 4.74 4.693 1.343 0 2.478-.406 3.335-1.209v-3.876h-3.68v1.337zm9.089-.31h3.787v-1.391h-3.787v-2.465h4.334v-1.471h-5.928v9.391h6.03v-1.465h-4.436v-2.6zm12.139 1.472l-4.449-6.8h-.047v9.291h1.553v-4.483l2.896 4.584h.095l2.883-4.584v4.483h1.553v-9.29h-.048l-4.436 6.799zm9.413-1.472h3.781v-1.391h-3.781v-2.465h4.328v-1.471h-5.929v9.391h6.03v-1.465h-4.429v-2.6zm14.05.452l-5.53-5.78h-.047v9.23h1.546v-5.624l5.53 5.786h.047v-9.23h-1.546v5.618zm5.085-5.779v1.417h3.004v7.974h1.506v-7.974h3.004v-1.417h-7.514z" fill="#08F5FF"/><mask id="a" maskUnits="userSpaceOnUse" x="69" y="26" width="55" height="47"><path d="M77.582 26.947l-7.709 7.708v30.49l7.709-7.708v-6.68l.856-.857h3.768l7.537-7.708H77.582v-6.68l.856-.857h4.796l7.366-7.708H77.582z" fill="#C4C4C4"/><path d="M93.683 26.947l-7.537 7.708h14.217v6.68l-1.027.857h-6.68L85.117 49.9v22.782l7.537-7.537V50.756l1.028-.856h6.68l7.709-7.708v-7.537l-7.709-7.708h-6.68z" fill="#C4C4C4"/><path d="M101.22 51.784l-.857 1.028v12.333l7.709-7.708v-5.653h-6.852z" fill="#C4C4C4"/><path d="M110.812 42.192l-7.537 7.708h12.162v22.782l7.88-7.537V49.9l-7.88-7.708h-4.625z" fill="#C4C4C4"/></mask><g mask="url(#a)"><path d="M104.413 101.18L46.012 45.866l56.38-54.215 53.483 54.215-51.462 55.314z" fill="url(#paint1_linear)"/></g><defs><linearGradient id="paint0_linear" x1="573.666" y1="122.778" x2="-8.028" y2="95.257" gradientUnits="userSpaceOnUse"><stop stop-color="#F2F2F2"/><stop offset=".292" stop-color="#C730EC"/><stop offset=".724" stop-color="#71F1FC"/><stop offset="1" stop-color="#1B1464"/></linearGradient><linearGradient id="paint1_linear" x1="72.282" y1="14.082" x2="139.575" y2="64.805" gradientUnits="userSpaceOnUse"><stop offset=".188" stop-color="#D914F4"/><stop offset=".302" stop-color="#B13CED"/><stop offset=".391" stop-color="#9A51EF"/><stop offset=".5" stop-color="#8669F0"/><stop offset=".63" stop-color="#7484F2"/><stop offset=".729" stop-color="#699FF4"/><stop offset=".802" stop-color="#56BAFF"/><stop offset=".922" stop-color="#67D6FA"/><stop offset="1" stop-color="#71F2FB"/></linearGradient></defs></svg>