<svg width="24" height="25" fill="none" xmlns="http://www.w3.org/2000/svg"><path fill="#000" d="M0 .5h24v24H0z"/><path d="M0 12.5C0 5.873 5.373.5 12 .5s12 5.373 12 12-5.373 12-12 12-12-5.373-12-12z" fill="#040000"/><path d="M10.8 14.9v-4l3.2 2-3.2 2z" fill="#040000"/><path fill-rule="evenodd" clip-rule="evenodd" d="M10.879 11.225v-.468a3.625 3.625 0 00-.49-.036 3.636 3.636 0 00-2.085 6.618 3.624 3.624 0 01-.978-2.477 3.642 3.642 0 013.553-3.637z" fill="#00F2EA"/><path fill-rule="evenodd" clip-rule="evenodd" d="M10.965 16.523c.895 0 1.625-.712 1.658-1.6l.003-7.921h1.448a2.75 2.75 0 01-.047-.502H12.05l-.003 7.922a1.662 1.662 0 01-2.43 1.409 1.66 1.66 0 001.348.692zm5.812-6.832v-.44a2.733 2.733 0 01-1.497-.446c.39.45.915.76 1.498.886" fill="#00F2EA"/><path fill-rule="evenodd" clip-rule="evenodd" d="M15.28 8.805a2.739 2.739 0 01-.677-1.803h-.53a2.756 2.756 0 001.206 1.803zm-4.892 3.893a1.664 1.664 0 00-1.421 2.521c.157.26.382.471.65.612a1.651 1.651 0 01-.314-.97 1.664 1.664 0 011.661-1.661c.171 0 .336.028.49.077v-2.018a3.622 3.622 0 00-.49-.036l-.085.002v1.55a1.636 1.636 0 00-.49-.077z" fill="#FF004F"/><path fill-rule="evenodd" clip-rule="evenodd" d="M16.777 9.69v1.537a4.701 4.701 0 01-2.75-.884v4.017a3.642 3.642 0 01-3.639 3.639 3.617 3.617 0 01-2.085-.66 3.63 3.63 0 002.661 1.161 3.643 3.643 0 003.64-3.638v-4.018a4.701 4.701 0 002.75.885V9.752a2.75 2.75 0 01-.577-.062" fill="#FF004F"/><path fill-rule="evenodd" clip-rule="evenodd" d="M14.027 14.36v-4.017a4.701 4.701 0 002.75.884V9.691a2.751 2.751 0 01-1.498-.886 2.755 2.755 0 01-1.206-1.803h-1.447l-.003 7.922a1.663 1.663 0 01-2.416 1.416 1.66 1.66 0 01-.59-.51 1.664 1.664 0 01-.89-1.47 1.664 1.664 0 011.661-1.662c.171 0 .335.028.49.077v-1.55a3.642 3.642 0 00-3.552 3.637c0 .956.372 1.827.977 2.477.61.43 1.339.66 2.085.66a3.642 3.642 0 003.639-3.64z" fill="#fff"/></svg>