<svg width="40" height="40" viewBox="0 0 40 40" fill="none" xmlns="http://www.w3.org/2000/svg">
<g filter="url(#filter0_d)">
<path fill-rule="evenodd" clip-rule="evenodd" d="M20.6591 31.1271H20.6541C18.6638 31.1265 16.708 30.6271 14.971 29.6796L8.6665 31.3334L10.3537 25.1707C9.31295 23.3671 8.76532 21.3213 8.76621 19.2252C8.76882 12.6681 14.1039 7.33337 20.659 7.33337C23.8404 7.33475 26.8264 8.57326 29.0717 10.8212C31.317 13.0691 32.5529 16.057 32.5516 19.2346C32.549 25.7903 27.2161 31.1245 20.6591 31.1271ZM15.263 27.5266L15.624 27.7408C17.1416 28.6414 18.8813 29.1179 20.655 29.1186H20.659C26.1072 29.1186 30.5414 24.6843 30.5436 19.2339C30.5446 16.5927 29.5174 14.1092 27.6512 12.2408C25.785 10.3724 23.3031 9.34295 20.6629 9.34204C15.2106 9.34204 10.7763 13.7759 10.7741 19.2259C10.7734 21.0936 11.296 22.9126 12.2854 24.4864L12.5205 24.8604L11.5219 28.508L15.263 27.5266ZM26.2435 21.7951C26.4508 21.8953 26.5907 21.9629 26.6505 22.0627C26.7248 22.1866 26.7248 22.7815 26.4773 23.4758C26.2295 24.1699 25.0424 24.8034 24.4714 24.8887C23.9595 24.9652 23.3116 24.9971 22.5998 24.7709C22.1682 24.634 21.6147 24.4511 20.9058 24.145C18.12 22.9421 16.2374 20.242 15.8816 19.7317C15.8566 19.696 15.8392 19.671 15.8295 19.658L15.8271 19.6548C15.6698 19.445 14.6161 18.0391 14.6161 16.584C14.6161 15.2153 15.2885 14.4978 15.598 14.1676C15.6192 14.1449 15.6387 14.1241 15.6561 14.1051C15.9285 13.8076 16.2505 13.7332 16.4486 13.7332C16.6466 13.7332 16.845 13.735 17.0181 13.7437C17.0394 13.7448 17.0617 13.7446 17.0846 13.7445C17.2578 13.7435 17.4737 13.7422 17.6867 14.2538C17.7686 14.4507 17.8885 14.7426 18.015 15.0504C18.2707 15.6729 18.5532 16.3607 18.6029 16.4602C18.6772 16.609 18.7267 16.7824 18.6276 16.9808C18.6128 17.0106 18.599 17.0387 18.5859 17.0655C18.5115 17.2174 18.4568 17.3291 18.3305 17.4765C18.2808 17.5345 18.2295 17.597 18.1782 17.6595C18.076 17.784 17.9738 17.9085 17.8847 17.9972C17.736 18.1453 17.5811 18.3061 17.7545 18.6036C17.9278 18.9011 18.5242 19.8741 19.4076 20.6621C20.3572 21.5091 21.1825 21.8671 21.6008 22.0486C21.6825 22.084 21.7487 22.1127 21.7973 22.137C22.0943 22.2858 22.2676 22.2609 22.441 22.0627C22.6143 21.8643 23.1838 21.1949 23.3819 20.8975C23.58 20.6001 23.7781 20.6496 24.0505 20.7488C24.3229 20.848 25.7839 21.5668 26.081 21.7155C26.139 21.7446 26.1933 21.7708 26.2435 21.7951Z" fill="#FDFDFD"/>
</g>
<defs>
<filter id="filter0_d" x="-4" y="0" width="48" height="48" filterUnits="userSpaceOnUse" color-interpolation-filters="sRGB">
<feFlood flood-opacity="0" result="BackgroundImageFix"/>
<feColorMatrix in="SourceAlpha" type="matrix" values="0 0 0 0 0 0 0 0 0 0 0 0 0 0 0 0 0 0 127 0"/>
<feOffset dy="4"/>
<feGaussianBlur stdDeviation="2"/>
<feColorMatrix type="matrix" values="0 0 0 0 0 0 0 0 0 0 0 0 0 0 0 0 0 0 0.25 0"/>
<feBlend mode="normal" in2="BackgroundImageFix" result="effect1_dropShadow"/>
<feBlend mode="normal" in="SourceGraphic" in2="effect1_dropShadow" result="shape"/>
</filter>
</defs>
</svg>
