<svg width="49" height="54" viewBox="0 0 49 54" fill="none" xmlns="http://www.w3.org/2000/svg">
<g clip-path="url(#clip0)" filter="url(#filter0_d)">
<path d="M28.6285 26.903L21.8227 20.2392C21.6653 20.085 21.4552 20 21.2311 20C21.0071 20 20.797 20.085 20.6396 20.2392L20.1384 20.7299C19.8122 21.0496 19.8122 21.5692 20.1384 21.8884L25.8533 27.4842L20.132 33.0862C19.9746 33.2405 19.8877 33.4461 19.8877 33.6654C19.8877 33.8849 19.9746 34.0905 20.132 34.2449L20.6332 34.7354C20.7907 34.8896 21.0007 34.9746 21.2248 34.9746C21.4489 34.9746 21.659 34.8896 21.8164 34.7354L28.6285 28.0655C28.7863 27.9108 28.8729 27.7042 28.8724 27.4846C28.8729 27.2641 28.7863 27.0576 28.6285 26.903Z" fill="#08F5FF"/>
</g>
<defs>
<filter id="filter0_d" x="-2.28266" y="0.717339" width="52.5653" height="52.5653" filterUnits="userSpaceOnUse" color-interpolation-filters="sRGB">
<feFlood flood-opacity="0" result="BackgroundImageFix"/>
<feColorMatrix in="SourceAlpha" type="matrix" values="0 0 0 0 0 0 0 0 0 0 0 0 0 0 0 0 0 0 127 0"/>
<feOffset/>
<feGaussianBlur stdDeviation="9.64133"/>
<feColorMatrix type="matrix" values="0 0 0 0 0.0392157 0 0 0 0 0.952941 0 0 0 0 1 0 0 0 0.8 0"/>
<feBlend mode="normal" in2="BackgroundImageFix" result="effect1_dropShadow"/>
<feBlend mode="normal" in="SourceGraphic" in2="effect1_dropShadow" result="shape"/>
</filter>
<clipPath id="clip0">
<rect width="14" height="14" fill="white" transform="translate(17 20)"/>
</clipPath>
</defs>
</svg>
