<svg width="156" height="134" viewBox="0 0 156 134" fill="none" xmlns="http://www.w3.org/2000/svg">
<g opacity="0.4">
<mask id="mask0" mask-type="alpha" maskUnits="userSpaceOnUse" x="0" y="0" width="156" height="134">
<path d="M22.5 0L0 22.5V111.5L22.5 89V69.5L25 67H36L58 44.5H22.5V25L25 22.5H39L60.5 0H22.5Z" fill="#C4C4C4"/>
<path d="M69.5 0L47.5 22.5H89V42L86 44.5H66.5L44.5 67V133.5L66.5 111.5V69.5L69.5 67H89L111.5 44.5V22.5L89 0H69.5Z" fill="#C4C4C4"/>
<path d="M91.5 72.5L89 75.5V111.5L111.5 89V72.5H91.5Z" fill="#C4C4C4"/>
<path d="M119.5 44.5L97.5 67H133V133.5L156 111.5V67L133 44.5H119.5Z" fill="#C4C4C4"/>
</mask>
<g mask="url(#mask0)">
<path d="M74.5 205L-70 68.1399L69.5 -66L201.83 68.1399L74.5 205Z" fill="url(#paint0_linear)"/>
</g>
</g>
<defs>
<linearGradient id="paint0_linear" x1="-5" y1="-10.5" x2="161.5" y2="115" gradientUnits="userSpaceOnUse">
<stop offset="0.1875" stop-color="#D914F4"/>
<stop offset="0.302083" stop-color="#B13CED"/>
<stop offset="0.390625" stop-color="#9A51EF"/>
<stop offset="0.5" stop-color="#8669F0"/>
<stop offset="0.630208" stop-color="#7484F2"/>
<stop offset="0.729167" stop-color="#699FF4"/>
<stop offset="0.802083" stop-color="#56BAFF"/>
<stop offset="0.921875" stop-color="#67D6FA"/>
<stop offset="1" stop-color="#71F2FB"/>
</linearGradient>
</defs>
</svg>
