<svg width="99" height="87" viewBox="0 0 99 87" fill="none" xmlns="http://www.w3.org/2000/svg">
<mask id="mask0" mask-type="alpha" maskUnits="userSpaceOnUse" x="17" y="0" width="64" height="54">
<path d="M26.4831 0.987869L17.3857 9.90368V45.1707L26.4831 36.2549V28.5278L27.494 27.5372H31.9416L40.8368 18.6214H26.4831V10.8943L27.494 9.90368H33.1546L41.8477 0.987869H26.4831Z" fill="#C4C4C4"/>
<path d="M45.4866 0.987869L36.5914 9.90368H53.371V17.6307L52.1581 18.6214H44.2736L35.3784 27.5372V53.8884L44.2736 45.1707V28.5278L45.4866 27.5372H53.371L62.4684 18.6214V9.90368L53.371 0.987869H45.4866Z" fill="#C4C4C4"/>
<path d="M54.3819 29.7166L53.371 30.9054V45.1707L62.4684 36.2549V29.7166H54.3819Z" fill="#C4C4C4"/>
<path d="M65.7031 18.6214L56.8078 27.5372H71.1615V53.8884L80.4611 45.1707V27.5372L71.1615 18.6214H65.7031Z" fill="#C4C4C4"/>
</mask>
<g mask="url(#mask0)">
<path d="M47.5088 82.2207L-10.9167 27.9888L45.4872 -25.1653L98.9921 27.9888L47.5088 82.2207Z" fill="url(#paint0_linear)"/>
</g>
<path d="M20.6938 85.4783L18.0293 81.488H18.001V86.9405H18.9309V84.3094L20.6655 87H20.7221L22.4486 84.3094V86.9405H23.3786V81.488H23.3502L20.6938 85.4783Z" fill="white"/>
<path d="M27.0212 81.488L24.4214 87H25.4443L25.881 86.0212H28.1978L28.6345 87H29.6574L27.0576 81.488H27.0212ZM26.2004 85.2604L27.0333 83.3821L27.8703 85.2604H26.2004Z" fill="white"/>
<path d="M34.7803 84.88L31.4689 81.488H31.4365V86.9049H32.3624V83.604L35.6739 87H35.7022V81.5831H34.7803V84.88Z" fill="white"/>
<path d="M40.0566 81.488L37.4568 87H38.4797L38.9164 86.0212H41.2332L41.6699 87H42.6928L40.093 81.488H40.0566ZM39.2358 85.2604L40.0688 83.3821L40.9057 85.2604H39.2358Z" fill="white"/>
<path d="M46.692 84.7966H47.9778V85.8388C47.6826 86.0409 47.3187 86.1637 46.8982 86.1637C45.758 86.1637 44.9979 85.3514 44.9979 84.2418C44.9979 83.1204 45.7297 82.316 46.8254 82.316C47.4036 82.316 47.8605 82.5776 48.1799 82.9263L48.7622 82.2724C48.2527 81.7573 47.6543 81.4839 46.8254 81.4839C45.2162 81.4839 44.0598 82.6568 44.0598 84.2418C44.0598 85.815 45.2445 86.9958 46.8982 86.9958C47.7028 86.9958 48.3821 86.7581 48.8956 86.2865V84.012H46.692V84.7966Z" fill="white"/>
<path d="M52.1341 84.6144H54.4024V83.7981H52.1341V82.3517H54.7299V81.4879H51.1799V86.9998H54.7906V86.14H52.1341V84.6144Z" fill="white"/>
<path d="M59.4038 85.4782L56.7392 81.4879H56.7109V86.9404H57.6409V84.3092L59.3755 86.9998H59.4321L61.1586 84.3092V86.9404H62.0885V81.4879H62.0602L59.4038 85.4782Z" fill="white"/>
<path d="M65.0405 84.6144H67.3048V83.7981H65.0405V82.3517H67.6323V81.4879H64.0823V86.9998H67.6929V86.14H65.0405V84.6144Z" fill="white"/>
<path d="M73.4545 84.8799L70.1431 81.4879H70.1147V86.9047H71.0407V83.6039L74.3521 86.9998H74.3804V81.583H73.4545V84.8799Z" fill="white"/>
<path d="M76.499 81.4879V82.32H78.2983V86.9998H79.1999V82.32H80.9992V81.4879H76.499Z" fill="white"/>
<path d="M3.48936 65.8596H8.72138V62.745H0V75.9721H3.48936V70.896H7.74695V68.035H3.48936V65.8596Z" fill="white"/>
<path d="M14.5032 62.7449L7.86011 75.976H11.7498L12.2794 74.6564H16.7958L17.3295 75.976H21.2191L14.576 62.7449H14.5032ZM13.3105 72.1005L14.5396 69.0058L15.7688 72.1005H13.3105Z" fill="white"/>
<path d="M27.0738 62.7449H23.5845V75.972H27.0738V62.7449Z" fill="white"/>
<path d="M42.2969 67.1711C42.2969 64.3656 40.0003 62.7449 37.4854 62.7449H31.5701V75.972H35.0594V71.5814H36.325L38.9127 75.972H42.9721L39.9963 70.9871C41.3387 70.2857 42.2969 68.9701 42.2969 67.1711ZM37.1539 68.6452H35.0594V65.6772H37.1539C38.0879 65.6772 38.7509 66.2359 38.7509 67.1711C38.7509 68.1063 38.0919 68.6452 37.1539 68.6452Z" fill="white"/>
<path d="M56.311 62.7449H51.2974V75.972H53.594V71.2922H56.311C58.9351 71.2922 61.0296 69.7626 61.0296 67.0284C61.0296 64.2546 58.919 62.7449 56.311 62.7449ZM56.0887 69.3307H53.5899V64.7064H56.0887C57.6494 64.7064 58.6966 65.5147 58.6966 67.0284C58.6966 68.5382 57.6696 69.3307 56.0887 69.3307Z" fill="white"/>
<path d="M65.5903 62.7449H63.2937V75.972H71.7037V73.9748H65.5903V62.7449Z" fill="white"/>
<path d="M80.308 62.7449L74.0652 75.976H76.5558L77.5181 73.8124H83.1747L84.137 75.976H86.6277L80.3808 62.7449H80.308ZM78.3066 71.9579L80.3444 67.3692L82.3822 71.9579H78.3066Z" fill="white"/>
<path d="M96.3194 62.7449L92.8866 68.2132L89.4538 62.7449H86.7893L91.7464 70.4838V75.9522H94.043V70.4481L99.0001 62.7449H96.3194Z" fill="white"/>
<defs>
<linearGradient id="paint0_linear" x1="15.3646" y1="-3.17295" x2="81.6965" y2="47.8433" gradientUnits="userSpaceOnUse">
<stop offset="0.1875" stop-color="#D914F4"/>
<stop offset="0.302083" stop-color="#B13CED"/>
<stop offset="0.390625" stop-color="#9A51EF"/>
<stop offset="0.5" stop-color="#8669F0"/>
<stop offset="0.630208" stop-color="#7484F2"/>
<stop offset="0.729167" stop-color="#699FF4"/>
<stop offset="0.802083" stop-color="#56BAFF"/>
<stop offset="0.921875" stop-color="#67D6FA"/>
<stop offset="1" stop-color="#71F2FB"/>
</linearGradient>
</defs>
</svg>
