<svg width="17" height="16" viewBox="0 0 17 16" fill="none" xmlns="http://www.w3.org/2000/svg">
<path fill-rule="evenodd" clip-rule="evenodd" d="M8.16594 15.8625H8.16266C6.83573 15.8621 5.5319 15.5291 4.37387 14.8975L0.170898 16L1.29568 11.8916C0.601861 10.6892 0.236776 9.32527 0.237371 7.92791C0.23911 3.5565 3.7958 0 8.16586 0C10.2868 0.000915378 12.2775 0.826592 13.7743 2.32523C15.2712 3.82379 16.0952 5.81574 16.0943 7.93417C16.0926 12.3046 12.5373 15.8607 8.16594 15.8625ZM4.56867 13.4621L4.8093 13.605C5.82107 14.2054 6.98085 14.523 8.16334 14.5235H8.16601C11.7981 14.5235 14.7543 11.5673 14.7557 7.93369C14.7564 6.17287 14.0716 4.51725 12.8274 3.27164C11.5833 2.02603 9.92873 1.33972 8.1686 1.33911C4.5337 1.33911 1.57751 4.29504 1.57606 7.92835C1.57555 9.17352 1.92395 10.3862 2.5836 11.4353L2.74028 11.6847L2.07457 14.1164L4.56867 13.4621ZM11.8888 9.64111C12.027 9.70788 12.1203 9.75298 12.1602 9.81948C12.2097 9.90208 12.2097 10.2987 12.0447 10.7615C11.8795 11.2243 11.0881 11.6466 10.7074 11.7035C10.3662 11.7545 9.93425 11.7758 9.4597 11.625C9.17196 11.5337 8.80299 11.4118 8.33034 11.2077C6.47315 10.4057 5.21807 8.60573 4.98087 8.26554C4.96425 8.2417 4.95263 8.22504 4.94614 8.21638L4.94455 8.21425C4.83971 8.07437 4.13723 7.1371 4.13723 6.16706C4.13723 5.25454 4.58548 4.77624 4.7918 4.55608C4.80594 4.541 4.81894 4.52713 4.83058 4.51441C5.01217 4.31608 5.2268 4.26649 5.35886 4.26649C5.49091 4.26649 5.62312 4.26771 5.73855 4.27351C5.75279 4.27423 5.7676 4.27414 5.78292 4.27405C5.89836 4.27337 6.04229 4.27253 6.18427 4.61358C6.23889 4.74483 6.31882 4.93941 6.40312 5.14464C6.57358 5.55964 6.76192 6.01817 6.79506 6.08452C6.8446 6.18369 6.8776 6.29933 6.81157 6.43161C6.80166 6.45144 6.79249 6.47015 6.78374 6.48804C6.73414 6.58929 6.69766 6.66377 6.61348 6.76206C6.58038 6.80071 6.54617 6.84237 6.51196 6.88403C6.4438 6.96703 6.37566 7.05002 6.31631 7.10914C6.21714 7.20793 6.1139 7.3151 6.22946 7.51344C6.34502 7.71177 6.7426 8.36047 7.33153 8.88579C7.9646 9.45046 8.51482 9.68912 8.79371 9.8101C8.84817 9.83372 8.89229 9.85286 8.92465 9.86906C9.12268 9.96825 9.23825 9.95166 9.35382 9.81948C9.46939 9.68727 9.84904 9.241 9.98108 9.0427C10.1131 8.84444 10.2452 8.87747 10.4268 8.94355C10.6084 9.00972 11.5824 9.48892 11.7805 9.58807C11.8192 9.60744 11.8553 9.62491 11.8888 9.64111Z" fill="#F2F2F2"/>
</svg>
