<svg width="16" height="16" viewBox="0 0 16 16" fill="none" xmlns="http://www.w3.org/2000/svg">
<path fill-rule="evenodd" clip-rule="evenodd" d="M8.00067 0C5.828 0 5.55533 0.0095 4.702 0.0483333C3.85033 0.0873333 3.269 0.222167 2.76033 0.42C2.23417 0.624333 1.78783 0.897667 1.34317 1.3425C0.898167 1.78717 0.624833 2.2335 0.419833 2.7595C0.2215 3.26833 0.0865 3.84983 0.0481666 4.70117C0.01 5.5545 0 5.82733 0 8C0 10.1727 0.00966665 10.4445 0.0483333 11.2978C0.0875 12.1495 0.222333 12.7308 0.42 13.2395C0.6245 13.7657 0.897833 14.212 1.34267 14.6567C1.78717 15.1017 2.2335 15.3757 2.75933 15.58C3.26833 15.7778 3.84983 15.9127 4.70133 15.9517C5.55467 15.9905 5.82717 16 7.99967 16C10.1725 16 10.4443 15.9905 11.2977 15.9517C12.1493 15.9127 12.7313 15.7778 13.2403 15.58C13.7663 15.3757 14.212 15.1017 14.6565 14.6567C15.1015 14.212 15.3748 13.7657 15.5798 13.2397C15.7765 12.7308 15.9115 12.1493 15.9515 11.298C15.9898 10.4447 15.9998 10.1727 15.9998 8C15.9998 5.82733 15.9898 5.55467 15.9515 4.70133C15.9115 3.84967 15.7765 3.26833 15.5798 2.75967C15.3748 2.2335 15.1015 1.78717 14.6565 1.3425C14.2115 0.8975 13.7665 0.624167 13.2398 0.42C12.7298 0.222167 12.1482 0.0873333 11.2965 0.0483333C10.4432 0.0095 10.1715 0 7.99817 0H8.00067ZM7.28317 1.44171C7.42252 1.4415 7.57243 1.44156 7.7342 1.44164L8.00084 1.44171C10.1368 1.44171 10.39 1.44938 11.2335 1.48771C12.0135 1.52338 12.4368 1.65371 12.7188 1.76321C13.0922 1.90821 13.3583 2.08155 13.6382 2.36155C13.9182 2.64155 14.0915 2.90821 14.2368 3.28155C14.3463 3.56321 14.4768 3.98655 14.5123 4.76655C14.5507 5.60988 14.559 5.86321 14.559 7.99821C14.559 10.1332 14.5507 10.3865 14.5123 11.2299C14.4767 12.0099 14.3463 12.4332 14.2368 12.7149C14.0918 13.0882 13.9182 13.354 13.6382 13.6339C13.3582 13.9139 13.0923 14.0872 12.7188 14.2322C12.4372 14.3422 12.0135 14.4722 11.2335 14.5079C10.3902 14.5462 10.1368 14.5545 8.00084 14.5545C5.86467 14.5545 5.6115 14.5462 4.76817 14.5079C3.98817 14.4719 3.56484 14.3415 3.28267 14.232C2.90934 14.087 2.64267 13.9137 2.36267 13.6337C2.08267 13.3537 1.90934 13.0877 1.764 12.7142C1.6545 12.4325 1.524 12.0092 1.4885 11.2292C1.45017 10.3859 1.4425 10.1325 1.4425 7.99621C1.4425 5.85988 1.45017 5.60788 1.4885 4.76455C1.52417 3.98455 1.6545 3.56121 1.764 3.27921C1.909 2.90588 2.08267 2.63921 2.36267 2.35921C2.64267 2.07921 2.90934 1.90588 3.28267 1.76055C3.56467 1.65055 3.98817 1.52055 4.76817 1.48471C5.50617 1.45138 5.79217 1.44138 7.28317 1.43971V1.44171ZM11.311 3.72968C11.311 3.19951 11.741 2.77001 12.271 2.77001V2.76968C12.801 2.76968 13.231 3.19968 13.231 3.72968C13.231 4.25968 12.801 4.68968 12.271 4.68968C11.741 4.68968 11.311 4.25968 11.311 3.72968ZM8.00041 3.89178C5.73166 3.89187 3.89225 5.73134 3.89225 8.00012C3.89225 10.269 5.73175 12.1076 8.00058 12.1076C10.2694 12.1076 12.1082 10.269 12.1082 8.00012C12.1082 5.73128 10.2692 3.89178 8.00041 3.89178ZM10.6674 8.00002C10.6674 6.52719 9.47339 5.33336 8.00072 5.33336C6.52789 5.33336 5.33405 6.52719 5.33405 8.00002C5.33405 9.47269 6.52789 10.6667 8.00072 10.6667C9.47339 10.6667 10.6674 9.47269 10.6674 8.00002Z" fill="#F2F2F2"/>
</svg>
