<svg width="15" height="16" viewBox="0 0 15 16" fill="none" xmlns="http://www.w3.org/2000/svg">
<path fill-rule="evenodd" clip-rule="evenodd" d="M7.96132 7.7714C7.96132 7.26896 8.32286 6.85712 8.7808 6.85712C9.23875 6.85712 9.60029 7.26896 9.60029 7.7714C9.60029 8.27385 9.23875 8.68569 8.7808 8.68569C8.33089 8.68569 7.96132 8.27385 7.96132 7.7714ZM5.02881 7.77144C5.02881 7.26899 5.39035 6.85715 5.84829 6.85715C6.30624 6.85715 6.67581 7.26899 6.66777 7.77144C6.66777 8.27388 6.30624 8.68572 5.84829 8.68572C5.39838 8.68572 5.02881 8.27388 5.02881 7.77144Z" fill="#F2F2F2"/>
<path fill-rule="evenodd" clip-rule="evenodd" d="M1.66008 0H12.5113C13.4264 0 14.1714 0.736 14.1714 1.648V16L12.4304 14.48L11.4505 13.584L10.414 12.632L10.8432 14.112H1.66008C0.745012 14.112 0 13.376 0 12.464V1.648C0 0.736 0.745012 0 1.66008 0ZM8.85111 9.80002C9.09405 10.104 9.38558 10.448 9.38558 10.448C11.1752 10.392 11.8636 9.23202 11.8636 9.23202C11.8636 6.65602 10.6974 4.56802 10.6974 4.56802C9.53134 3.70402 8.42192 3.72802 8.42192 3.72802L8.30855 3.85602C9.6852 4.27202 10.3249 4.87202 10.3249 4.87202C9.48275 4.41602 8.65676 4.19202 7.88745 4.10402C7.3044 4.04002 6.74564 4.05602 6.25166 4.12002C6.20925 4.12002 6.17301 4.12612 6.13216 4.13299C6.12621 4.13399 6.12017 4.13501 6.114 4.13602C5.83057 4.16002 5.14224 4.26402 4.27576 4.64002C3.97614 4.77602 3.79798 4.87202 3.79798 4.87202C3.79798 4.87202 4.47011 4.24002 5.92775 3.82402L5.84677 3.72802C5.84677 3.72802 4.73735 3.70402 3.57124 4.56802C3.57124 4.56802 2.40513 6.65602 2.40513 9.23202C2.40513 9.23202 3.08536 10.392 4.87501 10.448C4.87501 10.448 5.17464 10.088 5.41757 9.78402C4.38913 9.48002 4.00043 8.84002 4.00043 8.84002C4.00043 8.84002 4.08141 8.89602 4.22717 8.97602C4.23527 8.98402 4.24337 8.99202 4.25957 9.00002C4.27171 9.00802 4.28386 9.01402 4.296 9.02002C4.30815 9.02602 4.3203 9.03202 4.33245 9.04002C4.5349 9.15202 4.73735 9.24002 4.9236 9.31202C5.25562 9.44002 5.65242 9.56802 6.114 9.65602C6.72135 9.76802 7.43397 9.80802 8.21137 9.66402C8.59198 9.60002 8.98068 9.48802 9.38558 9.32002C9.669 9.21602 9.98482 9.06402 10.3168 8.84802C10.3168 8.84802 9.91194 9.50402 8.85111 9.80002Z" fill="#F2F2F2"/>
</svg>
