<svg width="33" height="33" viewBox="0 0 33 33" fill="none" xmlns="http://www.w3.org/2000/svg">
<mask id="mask0" mask-type="alpha" maskUnits="userSpaceOnUse" x="0" y="0" width="33" height="33">
<path fill-rule="evenodd" clip-rule="evenodd" d="M0 16.5C0 7.3873 7.3873 0 16.5 0C25.6127 0 33 7.3873 33 16.5C33 25.6127 25.6127 33 16.5 33C7.3873 33 0 25.6127 0 16.5Z" fill="white"/>
</mask>
<g mask="url(#mask0)">
<path fill-rule="evenodd" clip-rule="evenodd" d="M16.5005 7.69995C14.1106 7.69995 13.8106 7.7104 12.872 7.75312C11.9351 7.79602 11.2956 7.94434 10.7361 8.16196C10.1573 8.38673 9.66634 8.68739 9.17721 9.17672C8.6877 9.66586 8.38703 10.1568 8.16153 10.7354C7.94336 11.2952 7.79486 11.9348 7.75269 12.8713C7.71071 13.81 7.69971 14.1101 7.69971 16.5C7.69971 18.89 7.71034 19.189 7.75287 20.1277C7.79596 21.0645 7.94428 21.704 8.16171 22.2636C8.38666 22.8423 8.68733 23.3333 9.17666 23.8225C9.66561 24.312 10.1566 24.6134 10.735 24.8381C11.2949 25.0557 11.9346 25.2041 12.8712 25.247C13.8099 25.2897 14.1097 25.3001 16.4994 25.3001C18.8896 25.3001 19.1886 25.2897 20.1273 25.247C21.0641 25.2041 21.7043 25.0557 22.2642 24.8381C22.8428 24.6134 23.3331 24.312 23.822 23.8225C24.3115 23.3333 24.6122 22.8423 24.8377 22.2637C25.054 21.704 25.2025 21.0644 25.2465 20.1279C25.2887 19.1892 25.2997 18.89 25.2997 16.5C25.2997 14.1101 25.2887 13.8101 25.2465 12.8715C25.2025 11.9346 25.054 11.2952 24.8377 10.7356C24.6122 10.1568 24.3115 9.66586 23.822 9.17672C23.3325 8.68721 22.843 8.38654 22.2637 8.16196C21.7027 7.94434 21.0628 7.79602 20.126 7.75312C19.1873 7.7104 18.8885 7.69995 16.4978 7.69995H16.5005ZM15.7114 9.28578C15.8647 9.28554 16.0296 9.28561 16.2076 9.28569L16.5009 9.28578C18.8505 9.28578 19.129 9.29421 20.0568 9.33638C20.9148 9.37561 21.3805 9.51898 21.6907 9.63943C22.1014 9.79893 22.3942 9.9896 22.702 10.2976C23.01 10.6056 23.2007 10.8989 23.3605 11.3096C23.481 11.6195 23.6245 12.0851 23.6636 12.9431C23.7057 13.8708 23.7149 14.1495 23.7149 16.498C23.7149 18.8465 23.7057 19.1252 23.6636 20.0529C23.6243 20.9109 23.481 21.3766 23.3605 21.6864C23.201 22.0971 23.01 22.3895 22.702 22.6973C22.394 23.0053 22.1016 23.196 21.6907 23.3555C21.3809 23.4765 20.9148 23.6195 20.0568 23.6587C19.1291 23.7009 18.8505 23.71 16.5009 23.71C14.151 23.71 13.8726 23.7009 12.9449 23.6587C12.0869 23.6191 11.6212 23.4757 11.3108 23.3553C10.9001 23.1958 10.6068 23.0051 10.2988 22.6971C9.9908 22.3891 9.80013 22.0965 9.64027 21.6857C9.51981 21.3758 9.37626 20.9101 9.33721 20.0521C9.29505 19.1245 9.28661 18.8458 9.28661 16.4958C9.28661 14.1458 9.29505 13.8686 9.33721 12.9409C9.37645 12.0829 9.51981 11.6173 9.64027 11.307C9.79977 10.8964 9.9908 10.603 10.2988 10.295C10.6068 9.98704 10.9001 9.79637 11.3108 9.6365C11.621 9.5155 12.0869 9.3725 12.9449 9.33308C13.7567 9.29641 14.0713 9.28541 15.7114 9.28358V9.28578ZM20.1418 11.8027C20.1418 11.2195 20.6148 10.747 21.1978 10.747V10.7466C21.7808 10.7466 22.2538 11.2196 22.2538 11.8027C22.2538 12.3857 21.7808 12.8587 21.1978 12.8587C20.6148 12.8587 20.1418 12.3857 20.1418 11.8027ZM16.5006 11.9809C14.0049 11.981 11.9815 14.0044 11.9815 16.5001C11.9815 18.9958 14.005 21.0184 16.5007 21.0184C18.9965 21.0184 21.0192 18.9958 21.0192 16.5001C21.0192 14.0043 18.9963 11.9809 16.5006 11.9809ZM19.4343 16.5C19.4343 14.8798 18.1209 13.5666 16.501 13.5666C14.8808 13.5666 13.5676 14.8798 13.5676 16.5C13.5676 18.1199 14.8808 19.4333 16.501 19.4333C18.1209 19.4333 19.4343 18.1199 19.4343 16.5Z" fill="white"/>
</g>
</svg>
