<svg width="426" height="104" viewBox="0 0 426 104" fill="none" xmlns="http://www.w3.org/2000/svg">
<path d="M-7 1H423.777L333.34 103H-7V1Z" fill="#120E44" stroke="url(#paint0_linear)" stroke-width="2"/>
<path d="M144.303 32.7811H153.04V27.4741H138.476V50.0119H144.303V41.3628H151.413V36.4879H144.303V32.7811Z" fill="#08F5FF"/>
<path d="M162.695 27.4741L151.602 50.0187H158.097L158.982 47.7703H166.523L167.415 50.0187H173.91L162.817 27.4741H162.695ZM160.703 43.4154L162.756 38.1421L164.809 43.4154H160.703Z" fill="#08F5FF"/>
<path d="M183.687 27.4741H177.86V50.0119H183.687V27.4741Z" fill="#08F5FF"/>
<path d="M209.108 35.016C209.108 30.2357 205.273 27.4741 201.073 27.4741H191.195V50.0119H197.022V42.5309H199.135L203.456 50.0119H210.235L205.266 41.5181C207.507 40.323 209.108 38.0814 209.108 35.016ZM200.519 37.5277H197.022V32.4705H200.519C202.079 32.4705 203.186 33.4225 203.186 35.016C203.186 36.6094 202.086 37.5277 200.519 37.5277Z" fill="#08F5FF"/>
<path d="M232.51 27.4741H224.137V50.0119H227.973V42.038H232.51C236.892 42.038 240.389 39.4317 240.389 34.7729C240.389 30.0466 236.865 27.4741 232.51 27.4741ZM232.138 38.6958H227.966V30.8163H232.138C234.745 30.8163 236.493 32.1937 236.493 34.7729C236.493 37.3454 234.778 38.6958 232.138 38.6958Z" fill="white"/>
<path d="M248.005 27.4741H244.17V50.0119H258.214V46.609H248.005V27.4741Z" fill="white"/>
<path d="M272.582 27.4741L262.157 50.0187H266.316L267.923 46.3322H277.369L278.976 50.0187H283.135L272.704 27.4741H272.582ZM269.24 43.1723L272.643 35.3536L276.046 43.1723H269.24Z" fill="white"/>
<path d="M299.32 27.4741L293.587 36.7917L287.855 27.4741H283.406L291.683 40.6606V49.9782H295.518V40.5998L303.796 27.4741H299.32Z" fill="white"/>
<path d="M142.973 68.2357L138.523 61.4365H138.476V70.7271H140.029V66.2439L142.926 70.8284H143.02L145.903 66.2439V70.7271H147.456V61.4365H147.409L142.973 68.2357Z" fill="#08F5FF"/>
<path d="M153.54 61.4365L149.198 70.8284H150.906L151.636 69.1607H155.505L156.234 70.8284H157.942L153.6 61.4365H153.54ZM152.169 67.8643L153.56 64.6639L154.958 67.8643H152.169Z" fill="#08F5FF"/>
<path d="M166.496 67.2161L160.967 61.4365H160.913V70.6664H162.459V65.042L167.989 70.8284H168.036V61.5986H166.496V67.2161Z" fill="#08F5FF"/>
<path d="M175.308 61.4365L170.966 70.8284H172.675L173.404 69.1607H177.273L178.002 70.8284H179.71L175.369 61.4365H175.308ZM173.937 67.8643L175.328 64.6639L176.726 67.8643H173.937Z" fill="#08F5FF"/>
<path d="M186.387 67.0743H188.535V68.85C188.042 69.1944 187.434 69.4037 186.732 69.4037C184.828 69.4037 183.558 68.0195 183.558 66.129C183.558 64.2182 184.78 62.8476 186.61 62.8476C187.576 62.8476 188.339 63.2932 188.872 63.8874L189.844 62.7733C188.994 61.8956 187.994 61.4297 186.61 61.4297C183.923 61.4297 181.992 63.4282 181.992 66.129C181.992 68.8095 183.97 70.8216 186.732 70.8216C188.075 70.8216 189.21 70.4165 190.067 69.613V65.7374H186.387V67.0743Z" fill="#08F5FF"/>
<path d="M195.476 66.7638H199.263V65.3729H195.476V62.9084H199.81V61.4365H193.882V70.8284H199.912V69.3632H195.476V66.7638Z" fill="#08F5FF"/>
<path d="M207.615 68.2357L203.166 61.4365H203.119V70.7271H204.672V66.2439L207.568 70.8284H207.663L210.546 66.2439V70.7271H212.099V61.4365H212.051L207.615 68.2357Z" fill="#08F5FF"/>
<path d="M217.028 66.7638H220.809V65.3729H217.028V62.9084H221.356V61.4365H215.427V70.8284H221.457V69.3632H217.028V66.7638Z" fill="#08F5FF"/>
<path d="M231.078 67.2161L225.548 61.4365H225.501V70.6664H227.047V65.042L232.577 70.8284H232.624V61.5986H231.078V67.2161Z" fill="#08F5FF"/>
<path d="M236.163 61.4365V62.8544H239.167V70.8284H240.673V62.8544H243.677V61.4365H236.163Z" fill="#08F5FF"/>
<mask id="mask0" mask-type="alpha" maskUnits="userSpaceOnUse" x="69" y="26" width="55" height="47">
<path d="M77.5815 26.9468L69.8733 34.6549V65.145L77.5815 57.4369V50.7564L78.4379 49.9H82.2064L89.7432 42.1918H77.5815V35.5114L78.4379 34.6549H83.2341L90.5997 26.9468H77.5815Z" fill="#C4C4C4"/>
<path d="M93.683 26.9468L86.1461 34.6549H100.363V41.3354L99.3356 42.1918H92.6552L85.1183 49.9V72.6819L92.6552 65.145V50.7564L93.683 49.9H100.363L108.072 42.1918V34.6549L100.363 26.9468H93.683Z" fill="#C4C4C4"/>
<path d="M101.22 51.7842L100.363 52.812V65.145L108.072 57.4369V51.7842H101.22Z" fill="#C4C4C4"/>
<path d="M110.812 42.1918L103.275 49.9H115.437V72.6819L123.317 65.145V49.9L115.437 42.1918H110.812Z" fill="#C4C4C4"/>
</mask>
<g mask="url(#mask0)">
<path d="M104.413 101.18L46.0115 45.8658L102.392 -8.34863L155.875 45.8658L104.413 101.18Z" fill="url(#paint1_linear)"/>
</g>
<defs>
<linearGradient id="paint0_linear" x1="573.666" y1="122.778" x2="-8.02756" y2="95.2566" gradientUnits="userSpaceOnUse">
<stop stop-color="#F2F2F2"/>
<stop offset="0.291667" stop-color="#C730EC"/>
<stop offset="0.723958" stop-color="#71F1FC"/>
<stop offset="1" stop-color="#1B1464"/>
</linearGradient>
<linearGradient id="paint1_linear" x1="72.2821" y1="14.0824" x2="139.575" y2="64.8049" gradientUnits="userSpaceOnUse">
<stop offset="0.1875" stop-color="#D914F4"/>
<stop offset="0.302083" stop-color="#B13CED"/>
<stop offset="0.390625" stop-color="#9A51EF"/>
<stop offset="0.5" stop-color="#8669F0"/>
<stop offset="0.630208" stop-color="#7484F2"/>
<stop offset="0.729167" stop-color="#699FF4"/>
<stop offset="0.802083" stop-color="#56BAFF"/>
<stop offset="0.921875" stop-color="#67D6FA"/>
<stop offset="1" stop-color="#71F2FB"/>
</linearGradient>
</defs>
</svg>
