<svg width="596" height="670" viewBox="0 0 596 670" fill="none" xmlns="http://www.w3.org/2000/svg">
<g filter="url(#filter0_d)">
<path d="M106.445 134.282L154.699 86V182.536L106.445 134.282Z" fill="#272361"/>
<path d="M435.907 420.643L180.088 164.823H435.907V420.643Z" fill="#272361"/>
<path d="M356.762 577.108L233.549 453.895H356.762V577.108Z" fill="#272361"/>
<path d="M356.762 577.081V277.543L506.545 427.299L356.762 577.081Z" fill="#6BCCE1"/>
<path d="M356.763 453.895H279.308V199.847L356.763 277.542V453.895Z" fill="#6BCCE1"/>
<path d="M215.836 266.137V345.416L298.577 428.023L298.604 349.012L215.836 266.137Z" fill="#272361"/>
<path d="M89 175.692L89.1879 297.107L215.836 423.702V302.636L89 175.692Z" fill="#6BCCE1"/>
<path d="M461.162 167.856L461.242 210.823L506.008 255.616L506.035 212.783L461.162 167.856Z" fill="#272361"/>
<path d="M252.604 86L252.631 111.63L332.125 191.124L332.152 165.575L252.604 86Z" fill="#6BCCE1"/>
<path d="M215.836 302.717L179.256 266.137H215.836V302.717Z" fill="#6BCCE1"/>
<path d="M223.538 235.434V244.371L388.78 409.612V400.675L223.538 235.434Z" fill="#272361"/>
<path d="M343.075 113.482V117.078L506.545 280.522V276.925L343.075 113.482Z" fill="#6BCCE1"/>
<path d="M343.075 125.505V129.129L506.545 292.572V288.949L343.075 125.505Z" fill="#6BCCE1"/>
<path d="M343.075 137.556V141.152L506.545 304.595V300.999L343.075 137.556Z" fill="#6BCCE1"/>
<path d="M89 91.2064V94.8027L218.466 224.242V220.646L89 91.2064Z" fill="#6BCCE1"/>
<path d="M89 101.324V104.921L218.466 234.387V230.791L89 101.324Z" fill="#6BCCE1"/>
</g>
<defs>
<filter id="filter0_d" x="0.218491" y="0.417824" width="595.108" height="668.671" filterUnits="userSpaceOnUse" color-interpolation-filters="sRGB">
<feFlood flood-opacity="0" result="BackgroundImageFix"/>
<feColorMatrix in="SourceAlpha" type="matrix" values="0 0 0 0 0 0 0 0 0 0 0 0 0 0 0 0 0 0 127 0"/>
<feOffset dy="3.19933"/>
<feGaussianBlur stdDeviation="44.3908"/>
<feColorMatrix type="matrix" values="0 0 0 0 0.443137 0 0 0 0 0.945098 0 0 0 0 0.988235 0 0 0 0.5 0"/>
<feBlend mode="normal" in2="BackgroundImageFix" result="effect1_dropShadow"/>
<feBlend mode="normal" in="SourceGraphic" in2="effect1_dropShadow" result="shape"/>
</filter>
</defs>
</svg>
