<svg width="24" height="25" viewBox="0 0 24 25" fill="none" xmlns="http://www.w3.org/2000/svg">
<rect width="24" height="24" transform="translate(0 0.5)" fill="black"/>
<path d="M0 12.5C0 5.87258 5.37258 0.5 12 0.5C18.6274 0.5 24 5.87258 24 12.5C24 19.1274 18.6274 24.5 12 24.5C5.37258 24.5 0 19.1274 0 12.5Z" fill="#040000"/>
<path d="M10.7998 14.8999V10.8999L13.9998 12.9L10.7998 14.8999Z" fill="#040000"/>
<path fill-rule="evenodd" clip-rule="evenodd" d="M10.8789 11.225V10.7569C10.7164 10.7339 10.5526 10.722 10.3886 10.7212C8.38227 10.7212 6.75 12.3537 6.75 14.3601C6.75 15.5908 7.36509 16.6802 8.30339 17.339C7.67512 16.6671 7.32583 15.7815 7.32634 14.8616C7.32634 12.8839 8.91215 11.2711 10.8789 11.225Z" fill="#00F2EA"/>
<path fill-rule="evenodd" clip-rule="evenodd" d="M10.9647 16.5234C11.8598 16.5234 12.5901 15.8113 12.6233 14.9238L12.6263 7.00158H14.0736C14.0427 6.83617 14.0271 6.66827 14.0269 6.5H12.0503L12.047 14.4225C12.014 15.3097 11.2835 16.0215 10.3886 16.0215C10.1199 16.0216 9.8553 15.9562 9.61768 15.8308C9.7711 16.0448 9.9733 16.2193 10.2075 16.3397C10.4418 16.4602 10.7013 16.5231 10.9647 16.5234ZM16.7772 9.6906V9.2503C16.2453 9.2508 15.7248 9.09607 15.2796 8.80507C15.6699 9.25452 16.1955 9.56522 16.7775 9.6906" fill="#00F2EA"/>
<path fill-rule="evenodd" clip-rule="evenodd" d="M15.2793 8.8049C14.843 8.30564 14.6027 7.66501 14.6029 7.00195H14.0733C14.1419 7.36844 14.2841 7.71719 14.4914 8.0271C14.6987 8.337 14.9668 8.60161 15.2793 8.8049ZM10.3882 12.6982C9.94769 12.6988 9.52534 12.874 9.21381 13.1855C8.90231 13.497 8.72709 13.9194 8.72656 14.3599C8.72686 14.663 8.80996 14.9602 8.96691 15.2194C9.12386 15.4787 9.34866 15.6901 9.61704 15.8309C9.41269 15.5491 9.30266 15.2099 9.30264 14.8618C9.30306 14.4212 9.47826 13.9988 9.78979 13.6872C10.1013 13.3756 10.5237 13.2003 10.9643 13.1998C11.1355 13.1998 11.2996 13.2281 11.4546 13.2768V11.2586C11.2922 11.2356 11.1284 11.2237 10.9643 11.2229C10.9354 11.2229 10.9071 11.2246 10.8786 11.2251V12.7752C10.72 12.7247 10.5546 12.6988 10.3882 12.6982Z" fill="#FF004F"/>
<path fill-rule="evenodd" clip-rule="evenodd" d="M16.7771 9.6907V11.2271C15.7519 11.2271 14.8023 10.8992 14.0267 10.3426V14.36C14.0267 16.3663 12.3948 17.9985 10.3884 17.9985C9.61311 17.9985 8.89413 17.7539 8.30322 17.3389C8.64296 17.7053 9.05468 17.9975 9.51263 18.1974C9.97058 18.3972 10.4649 18.5002 10.9645 18.5001C12.9708 18.5001 14.6031 16.8679 14.6031 14.8618V10.8445C15.4043 11.4206 16.3665 11.7301 17.3534 11.7289V9.75173C17.1555 9.75173 16.9631 9.73028 16.7771 9.69043" fill="#FF004F"/>
<path fill-rule="evenodd" clip-rule="evenodd" d="M14.0267 14.3599V10.3426C14.8279 10.9188 15.7902 11.2282 16.7771 11.227V9.6907C16.1952 9.5652 15.6697 9.2544 15.2795 8.8049C14.9669 8.60161 14.6989 8.337 14.4916 8.0271C14.2843 7.71719 14.142 7.36844 14.0735 7.00195H12.6262L12.6231 14.9242C12.5899 15.8113 11.8596 16.5235 10.9645 16.5235C10.7011 16.5232 10.4416 16.4602 10.2074 16.3398C9.97316 16.2194 9.77096 16.0449 9.61751 15.8309C9.34908 15.6901 9.12421 15.4787 8.96721 15.2195C8.81021 14.9602 8.72706 14.663 8.72676 14.3599C8.72726 13.9194 8.90248 13.497 9.21401 13.1855C9.52551 12.874 9.94788 12.6988 10.3884 12.6982C10.5594 12.6982 10.7235 12.7263 10.8787 12.7752V11.2251C8.91198 11.2713 7.32617 12.884 7.32617 14.8618C7.32617 15.8182 7.69775 16.6889 8.30322 17.3392C8.91361 17.7689 9.64198 17.9992 10.3884 17.9985C12.3948 17.9985 14.0267 16.3662 14.0267 14.3599Z" fill="white"/>
</svg>
