<svg width="482" height="426" viewBox="0 0 482 426" fill="none" xmlns="http://www.w3.org/2000/svg">
<path d="M157.822 49H245L87.1779 238H0L157.822 49Z" fill="url(#paint0_linear)"/>
<path d="M157.822 426H245L87.1779 238H0L157.822 426Z" fill="url(#paint1_linear)"/>
<path d="M270.822 49H358L200.178 238H113L270.822 49Z" fill="url(#paint2_linear)"/>
<path d="M270.822 426H358L200.178 238H113L270.822 426Z" fill="url(#paint3_linear)"/>
<path d="M456 -20H522L312 230H246L456 -20Z" fill="url(#paint4_linear)"/>
<path d="M556 -20H606.5L396.5 230H346L556 -20Z" fill="url(#paint5_linear)"/>
<defs>
<linearGradient id="paint0_linear" x1="141.288" y1="49" x2="141.288" y2="238" gradientUnits="userSpaceOnUse">
<stop stop-color="#6BCCE1"/>
<stop offset="1" stop-color="#1C165E" stop-opacity="0"/>
</linearGradient>
<linearGradient id="paint1_linear" x1="141.288" y1="426" x2="141.288" y2="238" gradientUnits="userSpaceOnUse">
<stop stop-color="#6BCCE1"/>
<stop offset="1" stop-color="#1C165E" stop-opacity="0"/>
</linearGradient>
<linearGradient id="paint2_linear" x1="254.288" y1="49" x2="254.288" y2="238" gradientUnits="userSpaceOnUse">
<stop stop-color="#71F1FC"/>
<stop offset="1" stop-color="#1C165E" stop-opacity="0"/>
</linearGradient>
<linearGradient id="paint3_linear" x1="254.288" y1="426" x2="254.288" y2="238" gradientUnits="userSpaceOnUse">
<stop stop-color="#71F1FC"/>
<stop offset="1" stop-color="#1C165E" stop-opacity="0"/>
</linearGradient>
<linearGradient id="paint4_linear" x1="384" y1="-20" x2="384" y2="230" gradientUnits="userSpaceOnUse">
<stop stop-color="#20205D"/>
<stop offset="1" stop-color="#C133E7"/>
</linearGradient>
<linearGradient id="paint5_linear" x1="583" y1="-8.49999" x2="346" y2="230" gradientUnits="userSpaceOnUse">
<stop offset="0.0416667" stop-color="#8988B4"/>
<stop offset="0.530708" stop-color="#71709A"/>
<stop offset="1" stop-color="#1C165E"/>
</linearGradient>
</defs>
</svg>
