<svg width="24" height="24" viewBox="0 0 24 24" fill="none" xmlns="http://www.w3.org/2000/svg">
<path d="M0 12C0 5.37258 5.37258 0 12 0C18.6274 0 24 5.37258 24 12C24 18.6274 18.6274 24 12 24C5.37258 24 0 18.6274 0 12Z" fill="#6441A5"/>
<path d="M10.7998 14.3999V10.3999L13.9998 12.4L10.7998 14.3999Z" fill="#6441A5"/>
<path fill-rule="evenodd" clip-rule="evenodd" d="M6 8.18231L6.81834 6H18V13.6385L14.7268 16.9105H12.2724L10.6366 18.548H8.99918V16.9105H6V8.18231ZM16.9093 7.09046H7.90858V15.0016H10.3646V16.6368L12 15.0016H14.9996L16.9093 13.0918V7.09046Z" fill="white"/>
<path fill-rule="evenodd" clip-rule="evenodd" d="M11.9997 12.5469H10.9087V9.27393H11.9997V12.5469ZM14.9992 12.5469H13.9084V9.27393H14.9992V12.5469Z" fill="white"/>
</svg>
