<svg width="19" height="16" viewBox="0 0 19 16" fill="none" xmlns="http://www.w3.org/2000/svg">
<path d="M8.92933 4.64849L8.96808 5.30269L8.3223 5.22258C5.97164 4.91551 3.91805 3.87413 2.17444 2.12515L1.322 1.25733L1.10243 1.89818C0.63747 3.32674 0.934531 4.8354 1.90321 5.85008C2.41983 6.41082 2.30359 6.49092 1.41241 6.15715C1.10243 6.05034 0.831205 5.97024 0.805374 6.01029C0.714964 6.10375 1.02494 7.31869 1.27034 7.79932C1.60615 8.46687 2.29068 9.12107 3.03979 9.50825L3.67265 9.81532L2.92354 9.82867C2.20027 9.82867 2.17444 9.84202 2.25193 10.1224C2.51024 10.9902 3.53058 11.9114 4.66716 12.312L5.46793 12.5923L4.77049 13.0196C3.73723 13.6337 2.52316 13.9808 1.30909 14.0075C0.72788 14.0209 0.25 14.0743 0.25 14.1143C0.25 14.2479 1.82571 14.9955 2.74273 15.2892C5.49376 16.157 8.76143 15.7832 11.2154 14.3013C12.959 13.2465 14.7026 11.1504 15.5163 9.12107C15.9555 8.03964 16.3946 6.06369 16.3946 5.11577C16.3946 4.50163 16.4333 4.42152 17.1566 3.68721C17.5828 3.25998 17.9832 2.7927 18.0607 2.65919C18.1899 2.40552 18.177 2.40552 17.5183 2.63249C16.4204 3.03302 16.2654 2.97961 16.8079 2.37882C17.2083 1.95159 17.6862 1.17723 17.6862 0.95026C17.6862 0.910207 17.4924 0.976962 17.2729 1.09712C17.0404 1.23063 16.5237 1.4309 16.1363 1.55106L15.4388 1.77802L14.806 1.33744C14.4572 1.09712 13.9664 0.830101 13.7081 0.749995C13.0494 0.563081 12.042 0.589783 11.4479 0.803399C9.83343 1.40419 8.81309 2.95291 8.92933 4.64849Z" fill="white"/>
</svg>
