<svg width="33" height="33" viewBox="0 0 33 33" fill="none" xmlns="http://www.w3.org/2000/svg">
<path d="M24.9319 12.4253C24.7295 11.6477 24.1331 11.0354 23.3758 10.8276C22.0034 10.45 16.4997 10.45 16.4997 10.45C16.4997 10.45 10.996 10.45 9.62351 10.8276C8.86621 11.0354 8.26981 11.6477 8.06741 12.4253C7.69971 13.8345 7.69971 16.775 7.69971 16.775C7.69971 16.775 7.69971 19.7153 8.06741 21.1246C8.26981 21.9022 8.86621 22.5145 9.62351 22.7224C10.996 23.1 16.4997 23.1 16.4997 23.1C16.4997 23.1 22.0034 23.1 23.3758 22.7224C24.1331 22.5145 24.7295 21.9022 24.9319 21.1246C25.2997 19.7153 25.2997 16.775 25.2997 16.775C25.2997 16.775 25.2997 13.8345 24.9319 12.4253Z" fill="white"/>
<path d="M14.8496 19.8V14.3L19.2496 17.0502L14.8496 19.8Z" fill="#FF0000"/>
</svg>
